<svg width="97" height="55" viewBox="0 0 97 55" fill="none" xmlns="http://www.w3.org/2000/svg">
<rect width="97" height="55" fill="black"/>
<path d="M17.3438 37V19.8672H19.3359V35.2188H26.9414V37H17.3438ZM44.7422 28.4102C44.7422 29.7305 44.5742 30.9336 44.2383 32.0195C43.9023 33.0977 43.4023 34.0273 42.7383 34.8086C42.082 35.582 41.2656 36.1797 40.2891 36.6016C39.3125 37.0234 38.1797 37.2344 36.8906 37.2344C35.5625 37.2344 34.4023 37.0234 33.4102 36.6016C32.4258 36.1797 31.6055 35.5781 30.9492 34.7969C30.3008 34.0156 29.8125 33.082 29.4844 31.9961C29.1641 30.9102 29.0039 29.707 29.0039 28.3867C29.0039 26.6367 29.293 25.1016 29.8711 23.7812C30.4492 22.4609 31.3242 21.4336 32.4961 20.6992C33.6758 19.9648 35.1523 19.5977 36.9258 19.5977C38.6211 19.5977 40.0469 19.9609 41.2031 20.6875C42.3672 21.4141 43.2461 22.4375 43.8398 23.7578C44.4414 25.0703 44.7422 26.6211 44.7422 28.4102ZM31.1016 28.4102C31.1016 29.8633 31.3086 31.1211 31.7227 32.1836C32.1367 33.2461 32.7695 34.0664 33.6211 34.6445C34.4805 35.2227 35.5703 35.5117 36.8906 35.5117C38.2188 35.5117 39.3047 35.2227 40.1484 34.6445C41 34.0664 41.6289 33.2461 42.0352 32.1836C42.4414 31.1211 42.6445 29.8633 42.6445 28.4102C42.6445 26.1992 42.1797 24.4727 41.25 23.2305C40.3281 21.9805 38.8867 21.3555 36.9258 21.3555C35.5977 21.3555 34.5039 21.6406 33.6445 22.2109C32.7852 22.7812 32.1445 23.5938 31.7227 24.6484C31.3086 25.6953 31.1016 26.9492 31.1016 28.4102ZM55.8867 28.0234H61.875V36.332C60.9766 36.6367 60.0508 36.8633 59.0977 37.0117C58.1523 37.1602 57.0938 37.2344 55.9219 37.2344C54.1406 37.2344 52.6367 36.8789 51.4102 36.168C50.1914 35.457 49.2656 34.4453 48.6328 33.1328C48 31.8125 47.6836 30.2461 47.6836 28.4336C47.6836 26.6602 48.0312 25.1133 48.7266 23.793C49.4297 22.4727 50.4414 21.4492 51.7617 20.7227C53.0898 19.9883 54.6836 19.6211 56.543 19.6211C57.4961 19.6211 58.3984 19.7109 59.25 19.8906C60.1094 20.0625 60.9062 20.3086 61.6406 20.6289L60.8789 22.3633C60.2461 22.0898 59.5469 21.8555 58.7812 21.6602C58.0234 21.4648 57.2383 21.3672 56.4258 21.3672C55.0273 21.3672 53.8281 21.6562 52.8281 22.2344C51.8359 22.8125 51.0742 23.6289 50.543 24.6836C50.0195 25.7383 49.7578 26.9883 49.7578 28.4336C49.7578 29.8633 49.9883 31.1094 50.4492 32.1719C50.9102 33.2266 51.6289 34.0469 52.6055 34.6328C53.582 35.2188 54.8398 35.5117 56.3789 35.5117C57.1523 35.5117 57.8164 35.4688 58.3711 35.3828C58.9258 35.2891 59.4297 35.1797 59.8828 35.0547V29.8047H55.8867V28.0234ZM80.8828 28.4102C80.8828 29.7305 80.7148 30.9336 80.3789 32.0195C80.043 33.0977 79.543 34.0273 78.8789 34.8086C78.2227 35.582 77.4062 36.1797 76.4297 36.6016C75.4531 37.0234 74.3203 37.2344 73.0312 37.2344C71.7031 37.2344 70.543 37.0234 69.5508 36.6016C68.5664 36.1797 67.7461 35.5781 67.0898 34.7969C66.4414 34.0156 65.9531 33.082 65.625 31.9961C65.3047 30.9102 65.1445 29.707 65.1445 28.3867C65.1445 26.6367 65.4336 25.1016 66.0117 23.7812C66.5898 22.4609 67.4648 21.4336 68.6367 20.6992C69.8164 19.9648 71.293 19.5977 73.0664 19.5977C74.7617 19.5977 76.1875 19.9609 77.3438 20.6875C78.5078 21.4141 79.3867 22.4375 79.9805 23.7578C80.582 25.0703 80.8828 26.6211 80.8828 28.4102ZM67.2422 28.4102C67.2422 29.8633 67.4492 31.1211 67.8633 32.1836C68.2773 33.2461 68.9102 34.0664 69.7617 34.6445C70.6211 35.2227 71.7109 35.5117 73.0312 35.5117C74.3594 35.5117 75.4453 35.2227 76.2891 34.6445C77.1406 34.0664 77.7695 33.2461 78.1758 32.1836C78.582 31.1211 78.7852 29.8633 78.7852 28.4102C78.7852 26.1992 78.3203 24.4727 77.3906 23.2305C76.4688 21.9805 75.0273 21.3555 73.0664 21.3555C71.7383 21.3555 70.6445 21.6406 69.7852 22.2109C68.9258 22.7812 68.2852 23.5938 67.8633 24.6484C67.4492 25.6953 67.2422 26.9492 67.2422 28.4102Z" fill="white"/>
</svg>
